<svg width="40" height="41" viewBox="0 0 40 41" fill="none" xmlns="http://www.w3.org/2000/svg">
    <rect y=".98" width="40" height="40" rx="20" fill="#949494"/>
    <g clip-path="url(#ezy8r5bxga)" fill="#fff">
        <path d="M20 12.781c2.672 0 2.988.012 4.04.059.976.043 1.503.207 1.855.344.464.18.8.398 1.148.746.352.351.566.683.746 1.148.137.352.3.883.344 1.856.047 1.054.058 1.37.058 4.039 0 2.672-.011 2.988-.058 4.039-.043.976-.207 1.504-.344 1.855-.18.465-.398.801-.746 1.149a3.076 3.076 0 0 1-1.148.746c-.352.136-.883.3-1.856.343-1.055.047-1.371.06-4.039.06-2.672 0-2.988-.013-4.04-.06-.976-.043-1.503-.207-1.855-.343-.464-.18-.8-.399-1.148-.746a3.076 3.076 0 0 1-.746-1.149c-.137-.351-.3-.883-.344-1.855-.047-1.055-.058-1.371-.058-4.04 0-2.671.011-2.988.058-4.038.043-.977.207-1.504.344-1.856.18-.465.398-.8.746-1.148a3.076 3.076 0 0 1 1.148-.746c.352-.137.883-.301 1.856-.344 1.05-.047 1.367-.059 4.039-.059zm0-1.8c-2.715 0-3.055.011-4.121.058-1.063.047-1.793.219-2.426.465a4.881 4.881 0 0 0-1.773 1.156 4.898 4.898 0 0 0-1.157 1.77c-.246.636-.418 1.363-.464 2.425-.047 1.07-.059 1.41-.059 4.125s.012 3.055.059 4.122c.046 1.062.218 1.793.464 2.425a4.88 4.88 0 0 0 1.157 1.774 4.888 4.888 0 0 0 1.77 1.152c.636.246 1.363.418 2.425.465 1.066.047 1.406.059 4.121.059 2.715 0 3.055-.012 4.121-.059 1.063-.047 1.793-.219 2.426-.465a4.888 4.888 0 0 0 1.77-1.152 4.888 4.888 0 0 0 1.152-1.77c.246-.636.418-1.363.465-2.425.047-1.067.058-1.407.058-4.122s-.011-3.054-.058-4.12c-.047-1.063-.22-1.794-.465-2.427a4.683 4.683 0 0 0-1.145-1.777 4.888 4.888 0 0 0-1.77-1.152c-.636-.246-1.363-.418-2.425-.465-1.07-.05-1.41-.063-4.125-.063z"/>
        <path d="M20 15.844a5.138 5.138 0 0 0 0 10.273 5.138 5.138 0 0 0 0-10.273zm0 8.469a3.333 3.333 0 1 1 .001-6.666A3.333 3.333 0 0 1 20 24.313zM26.54 15.64a1.2 1.2 0 1 1-2.4 0 1.2 1.2 0 0 1 2.4 0z"/>
    </g>
    <defs>
        <clipPath id="ezy8r5bxga">
            <path fill="#fff" transform="translate(10 10.98)" d="M0 0h20v20H0z"/>
        </clipPath>
    </defs>
</svg>
