<svg width="160" height="38" viewBox="0 0 160 38" fill="none" xmlns="http://www.w3.org/2000/svg">
    <path fill-rule="evenodd" clip-rule="evenodd" d="M33.661 14.537c0-.21.573-.081.573 0l-.002.11c-.005.22-.015.706.002 1.001a.4.4 0 0 1 0 .022v.062c.001.247.002.929.234 1.94.856-.429 1.58-.96 2.153-1.451.862-.743 1.366-1.39 2.097-3.21.627-1.57.51-2.341.371-3.257a11.613 11.613 0 0 1-.116-.955c-.255-3.647-.759-5.5-3.242-6.98a16.813 16.813 0 0 1-.888-.57C33.697.478 32.997.006 29.308 0c-3.553-.013-6.43 1.132-7.32 3.77-.225.669-.516 1.241-.794 1.789-.507.998-.973 1.914-.924 3.186.345.17.8.327 1.063.375.345.054 1.007.368 1.062.852.055.484-1 .681-1.497.681a.861.861 0 0 0-.434.123c.082.661.158 1.268.179 1.731.073 1.617.94 2.627 1.564 3.353.196.23.37.43.485.614.476.763 1.987 1.588 3.298 1.752 1.461.188 2.417.203 3.34.218.45.007.89.014 1.378.04a7.237 7.237 0 0 0 2.615-.34l.015-.064c.173-.742.316-1.358.316-1.497v-2.038l.007-.007zm-3.311.532c-.298-.015-.568-.02-.84-.024-.593-.009-1.2-.018-2.14-.14-.822-.102-1.774-.627-2.077-1.104a3.643 3.643 0 0 0-.303-.381c-.394-.458-.945-1.097-.987-2.12-.014-.267-.057-.61-.104-.988a22.345 22.345 0 0 1-.138-1.309c-.058-.844.247-1.439.58-2.09.177-.343.36-.701.503-1.12.56-1.663 2.374-2.386 4.616-2.379 2.328 0 2.767.3 3.49.79.163.111.341.232.56.362 1.565.927 1.883 2.106 2.048 4.403.016.225.045.42.072.606.086.576.159 1.063-.237 2.052-.456 1.145-.78 1.56-1.325 2.031-.793.682-2.028 1.513-3.725 1.425l.007-.014zm44.884 6.175 1.097-1.82-.014-.006c-1.297-.47-2.304-1.166-3.007-2.065a4.605 4.605 0 0 1-.973-2.877v-.422h3.622v-2.031h-3.664v-2.14h-3.09v2.14h-3.636v2.03h3.622v.423c0 2.393-1.352 4.117-4.064 5.16l1.132 1.874a8.822 8.822 0 0 0 2.808-1.506c.862-.682 1.462-1.404 1.793-2.168.36.73.96 1.411 1.794 2.052.842.647 1.697 1.097 2.58 1.356zm-5.036 6.789h11.7v-2.045h-9.52c-.359 0-.538-.17-.538-.504v-3.497h-3.084v4.676c0 .484.11.838.338 1.05.228.21.594.32 1.104.32zm8.03-5.296h3.091v-12.48h-3.09v4.983H74.95v1.99h3.277v5.507zm-22.607-3.872c.945-.913 1.428-2.133 1.428-3.653 0-1.506-.476-2.72-1.428-3.633-.952-.913-2.229-1.37-3.843-1.37-1.614 0-2.897.457-3.856 1.37-.96.914-1.435 2.113-1.435 3.633s.476 2.74 1.435 3.653c.959.914 2.249 1.37 3.856 1.37 1.608 0 2.89-.456 3.843-1.37zm-2.18-5.602c.42.511.634 1.159.634 1.95 0 .797-.213 1.45-.634 1.969-.428.511-.98.77-1.67.77s-1.248-.252-1.67-.77c-.427-.518-.634-1.186-.634-1.97s.214-1.438.635-1.95c.42-.51.98-.77 1.67-.77s1.248.26 1.669.77zm-2.353 14.776h11.673v-2.051h-9.465c-.373 0-.559-.164-.559-.484v-3.77h-3.084v4.97c0 .892.476 1.335 1.435 1.335zm7.99-5.425h3.09V10.27h-3.09v12.343zm43.324-5.39h-2.739v6.318h-3.09v-3.94c-.463.464-1.311.784-2.546.968-.821.13-2.615.191-5.388.191h-4.312v-2.024h2.608v-3.708h2.856v3.708c2.235 0 3.719-.04 4.45-.116.793-.088 1.352-.232 1.69-.422.435-.239.649-.655.649-1.24v-6.687h3.09V15.2h2.739v2.024h-.007zm-7.533-5.214-.4 5.214h-2.726v-3.98c0-.464-.2-.696-.593-.696H85.3v-2.03h8.161c1 0 1.463.497 1.4 1.492h.008zm5.484 16.29H88.418c-.931 0-1.4-.464-1.4-1.391v-4.485h3.084v3.36c0 .32.172.484.517.484h9.734V28.3zm18.482-12.16h2.739v-2.01h-2.739v-3.865h-3.084v6.032c0 .586-.22.995-.655 1.24-.331.191-.89.334-1.683.423-.732.075-2.215.116-4.45.116V14.75h-2.856v3.326h-2.608v1.95h4.312c2.773 0 4.567-.062 5.388-.178 1.242-.198 2.09-.518 2.552-.968v1.663h3.084V16.14zm-5.181.56.366-4.772-.007-.007c.076-.988-.386-1.485-1.38-1.485h-8.168v1.956h5.85c.4 0 .593.231.593.695v3.612h2.746zm3.691 11.177c.952-.764 1.421-1.772 1.421-3.006 0-1.247-.476-2.263-1.421-3.026-.945-.77-2.263-1.152-3.946-1.152-1.683 0-3.015.395-3.988 1.18-.917.749-1.379 1.764-1.379 2.998 0 1.234.462 2.229 1.379 2.992.973.77 2.305 1.159 3.988 1.159 1.683 0 3.001-.382 3.946-1.145zm-2.221-4.471c.427.361.634.845.634 1.465 0 .607-.214 1.09-.634 1.452-.421.354-.994.538-1.725.538-.731 0-1.311-.177-1.739-.538-.434-.361-.641-.838-.641-1.452 0-.613.214-1.104.641-1.465.435-.361 1.015-.539 1.739-.539.724 0 1.304.177 1.725.539zm25.001-3.285h-17.516V18.09h5.581v-3.326h3.105v3.326h8.83v2.03zm-2.201-8.404-.441 5.064h-2.953v-3.769c0-.463-.2-.695-.6-.695h-8.913v-2.031h11.693c.897 0 1.297.477 1.208 1.431h.006zm-1.062 13.216c0 1.274-.469 2.27-1.414 2.991-.987.737-2.353 1.105-4.105 1.105-1.752 0-3.112-.362-4.07-1.09-.966-.723-1.449-1.732-1.449-3.006 0-1.275.483-2.263 1.449-2.993.965-.736 2.324-1.104 4.07-1.104 1.745 0 3.104.368 4.077 1.104.966.736 1.442 1.732 1.442 2.992zm-2.953 0c0-.628-.234-1.145-.697-1.534-.469-.395-1.09-.593-1.869-.593-.78 0-1.401.198-1.87.593-.469.389-.697.906-.697 1.534 0 .627.235 1.165.697 1.553.469.396 1.09.587 1.87.587.779 0 1.4-.198 1.869-.587.463-.395.697-.913.697-1.553zm19.21-2.838.004-.005v.007l-.004-.002zm-4.405-8.81c0 3.937 1.468 6.874 4.405 8.81l-1.411 1.774c-.807-.375-1.683-1.07-2.635-2.092-.952-1.023-1.573-1.95-1.856-2.774-.214.838-.766 1.752-1.649 2.753-.883 1.002-1.821 1.78-2.814 2.331l-1.477-1.738c1.608-1.11 2.746-2.412 3.415-3.925.6-1.336.897-3.054.897-5.14v-2.78h3.125v2.78zm8.313 4.634h2.974v-2.03h-2.974v-5.624h-3.083v18.068h3.083V17.92zM6.856 6.934c-.76-.192-1.9-.479-2.736-.35-.494.073-1.188.928-1.882 1.781-.4.493-.8.985-1.16 1.327-.545.518-.8 1.206-.952 1.86-.036-.747-.057-1.57-.08-2.477C.033 8.567.019 8.032.002 7.47c-.026-.934.414-1.852.814-2.686.348-.725.665-1.387.62-1.942C1.334 1.642 4.073.606 6.053.606c.806 0 1.68-.056 2.584-.115 3.24-.21 6.868-.447 9.116 1.812.398.398.404.864.41 1.318.003.286.007.567.108.823.13.327.214.695.276 1.104-.415-.275-1.181-.627-2.04-1.023a62.047 62.047 0 0 1-1.63-.77c-.939-.463-2.194-.572-3.002-.634-.32-.02-.64.158-.954.332-.12.066-.239.132-.356.186l-.171.077c-.499.224-.947.424-1.195.939-.663 1.377-1.311 2.33-1.552 2.426-.085.031-.383-.044-.79-.147zm9.979 3.753c-.435.075-1.573-.075-1.842-.64-.262-.566.414-.92.835-.975.277-.036.5-.154.816-.322.165-.088.355-.189.591-.298.49-.225 1.132-.218 1.463-.191 0-.79-.014-1.48-.07-2.086-.323.205-.944.341-1.883.273-.407-.031-.904-.13-1.403-.228-.702-.14-1.409-.28-1.88-.236-1.015.096-2.022.443-2.394 1.22-.137.28-.377.582-.614.88-.208.26-.414.518-.545.756-.614 1.132-1.532.988-2.857.552-.87-.256-1.727.088-2.56.422-.164.066-.327.131-.489.192-.754.279-1.448 1.186-1.99 1.893-.171.225-.328.43-.466.588-.517.592-.973.886-1.283.94.034.293.069.573.11.832.115.668.114 1.172.113 1.583-.001.602-.002 1.004.363 1.43.683.792 2.214.903 3.778 1.015.317.023.635.046.948.075 1.535.138 3.241.03 5.117-.09a130.33 130.33 0 0 1 2.21-.128c.673-.034 1.31.04 1.868.105.7.081 1.275.148 1.636-.03l.25-.122c.653-.313 1.408-.675 1.689-1.5.29-.866.296-2.407.296-4.199 0-.457 0-.893.007-1.315a10.896 10.896 0 0 1-.704-.19c-.447-.13-.86-.25-1.124-.206h.014zm-5.899 5.044a7.97 7.97 0 0 1-.123.005c-.269.009-.66.022-1.27.186-.324.088-1.125-.028-1.47-.191-.214-.102-.391-.106-.602-.111-.129-.003-.27-.006-.44-.032-.455-.068-.744-.43-.69-.661.056-.232.346-.375.65-.45l.107-.023c.277-.058.56-.117.817-.352.29-.266.869-.416 1.138-.41.68.015 1.178.283 1.548.483.181.098.332.18.46.206.086.019.21.038.355.06.597.094 1.539.24 1.556.608.024.645-1.427.67-1.918.679-.054 0-.097.001-.124.003h.007zm2.05 19.152h.002c.22-.004.44-.007.66-.007l-.007-.014c1.021 0 2.063-.06 2.987-.708.38-.261.789-.47 1.202-.68.181-.091.363-.184.544-.281l-.083.395c-.047.242-.082.477-.115.701-.072.497-.137.938-.313 1.262-.545 1.008-1.524 2.208-3.132 2.208-2.835 0-4.546-.02-7.402-.075-.72-.014-1.36.049-1.952.107-.864.084-1.624.158-2.374-.032C1.713 37.432.83 36.5.768 35.476.75 35.117.632 34.786.5 34.42l-.078-.22c.331-.17.91-.436 1.738-.647 1.03-.26 1.802-.182 2.506-.11h.002c.125.012.248.025.37.035.238.019.455.025.67.03.406.011.805.022 1.337.12.377.07.882.259 1.437.467.643.242 1.353.508 2.012.644.82.167 1.653.155 2.491.143zm-8.472-3.728c.897 0 1.566.103 2.587.403 0 0 .69.095 1.18.265l.194.07c.402.145.78.281 1.179.387 1.683.463 2.987.804 4.477.648.821-.082 1.621-.341 2.504-1.07.248-.202.513-.348.779-.494.443-.245.887-.49 1.25-.992-.028-.524-.06-1.052-.092-1.597v-.004c-.088-1.476-.184-3.082-.24-5.106-.075-2.72-1.159-2.849-3.67-2.849-.4 0-.916-.168-1.518-.365-.903-.295-2-.653-3.18-.596a176.5 176.5 0 0 1-2.526.107c-1.736.065-3.055.114-4.097.309a3.956 3.956 0 0 0-2.104 1.104c-.05.049-.1.096-.15.142-.328.304-.65.602-.699 1.5-.027.519-.033 1.191-.039 1.918-.009 1.09-.019 2.305-.105 3.31a48.235 48.235 0 0 0-.166 3.83c.442-.197 1.021-.429 1.69-.654.794-.266 1.753-.286 2.74-.286l.006.02zm-2.083-2.01c.096-.592.76-1.467 1.18-2.019.093-.122.174-.228.234-.312.09-.127.19-.277.295-.434.278-.416.582-.872.788-1.011.283-.19 1.11-.586 1.56-.627.447-.048.8 0 1.061.184.133.099.293.302.44.489.136.173.26.33.34.377.166.088.448.327.71.722.087.13.156.214.215.285.12.145.194.235.269.547.063.256.109.354.176.5.056.121.127.276.238.583.035.096.05.192.066.297.026.163.055.349.168.59.186.395.131.824.055 1.172-.069.347-1.407.259-1.766.143-.141-.047-.367-.139-.6-.233-.349-.142-.714-.29-.842-.306a27.11 27.11 0 0 1-1.531-.259c-.285-.06-.732-.055-1.144-.05-.236.003-.46.006-.636-.004-.435-.028-1.16.116-1.16.116s-.2-.239-.116-.743v-.007zm31.334-9.235c.083-.709.152-1.418.152-1.418v-.006s.193.674.386 1.397l-.248.012c-.095.006-.191.011-.29.015zm.904 1.512c-.055-.34-.207-.954-.366-1.533-.155 0-.31.01-.482.023l-.056.004c-.062.566-.13 1.131-.186 1.343-.11.49-.152.858-.145 1.294 0 .157-.007.3-.027.437l.627-.236c.299-.112.582-.22.849-.316a10.908 10.908 0 0 1-.22-1.016h.006zm-2.926 2.19-.385.141v-.007c-1.677.6-3.27 1.09-4.254 1.392-.292.09-.53.162-.7.217-1.421.456-5.284 1.854-5.843 2.058l-.013-.594c-.027-1.245-.052-2.387.103-3.23.151-.797.538-1.724.772-2.133.085-.146.122-.287.155-.418.085-.326.154-.596.921-.76.973-.212 2.56-.178 4.443-.123.64.018 1.27-.015 1.921-.05.556-.03 1.13-.06 1.743-.06.738 0 1.552-.04 2.318-.081-.097.484-.173.913-.18 1.165-.02.654-.22 1.677-.345 2.242-.214.082-.434.162-.656.242zm2.546 5.491c.152.191.559.627.559.627l.366-.668s.207-2.924.2-3.469c0-.545.041-.66.041-.66l-1.566-.308-.21.062c-.071.02-.142.04-.21.061l.03.178c.103.618.301 1.805.438 2.31.087.325.137.713.18 1.055.05.39.091.717.172.82v-.008zm-8.912.102c-.247 0-.483-.001-.704-.013l.006.007-.511-.03c-.691-.044-1.276-.08-1.862.03-.6.116-1.276.368-1.752.552.014-.389.027-.818.027-1.425v-.259c.235-.047.987-.218 2.27-.606.71-.218 2.208-.62 3.622-.988.96-.251 1.626-.376 2.206-.485.429-.08.81-.151 1.23-.258.407-.103 1.393-.375 2.525-.689.062.757.124 1.622.09 1.888-.063.511.275 1.786.275 1.786s-1.055.354-1.117.606c-.062.253 0 .477 0 .477s1.276.641 2.007.893c.732.253 2.222.41 2.222.41s1.745-.123 1.876-.41c.131-.286.097-.606.097-.606l-1.332-.764s-.09-1.2-.041-1.84c.022-.334-.002-.451-.027-.578a2.12 2.12 0 0 1-.042-.546c.014-.641-.131-2.08-.131-2.08l-.076-.34.324-.104c.122-.038.234-.074.331-.107.897-.3 1.442-.436 1.753-.505.155 1.048.107 2.598.053 4.336a137.7 137.7 0 0 0-.053 2.037c-.011.61.075 1.242.158 1.862.024.176.048.35.07.524-.261.017-.52.049-.777.08-.532.065-1.06.13-1.59.07-.352-.04-.664-.066-.957-.09-.618-.052-1.15-.096-1.796-.244-.735-.168-1.367-.447-1.97-.714-.381-.169-.75-.332-1.127-.459-.421-.14-.81-.275-1.179-.404-.4-.138-.777-.27-1.153-.393-.116-.04-.297-.117-.493-.201-.34-.146-.728-.312-.907-.338-.55-.08-1.069-.081-1.544-.082zm8.4 4.785c-.33-.083-.656-.165-1.005-.239-.738-.158-1.35-.468-1.935-.764-.4-.203-.789-.4-1.197-.538-.525-.176-1.03-.415-1.497-.635-.581-.275-1.1-.521-1.518-.578-.372-.052-.65-.012-.932.028-.2.028-.401.057-.641.054a52.976 52.976 0 0 1-.704-.012c-.73-.015-1.445-.03-1.924.053-1.035.177-1.636.43-1.905.572 0 .118.006.242.012.377l.002.039c.055 1.254.552 2.835 1.387 3.49.127.099.34.292.588.519.573.521 1.34 1.221 1.73 1.369.946.355 1.733.293 2.735.215.459-.035.963-.075 1.55-.08l.822-.008c1.801-.017 3.335-.032 5.083-.305.303-.047.66-.052 1.024-.057.743-.01 1.514-.022 1.908-.393.78-.736 1.22-1.806 1.504-3.046v-.041h-.07c-.423 0-.902.097-1.386.195-.644.13-1.298.263-1.849.173h.014c-.69-.11-1.247-.25-1.795-.388zm2.837-12.139c-.214.062-.503.15-.835.266l.007-.007c-.096-.354-.2-.695-.296-.968a28.123 28.123 0 0 1-.414-1.28h.324c.626.014 1.083.293 1.451.517.131.08.251.153.363.205.456.21.732.422.946.845a36.8 36.8 0 0 1-1.546.422z" fill="#ACACAC"/>
</svg>
