<svg width="40" height="41" viewBox="0 0 40 41" fill="none" xmlns="http://www.w3.org/2000/svg">
    <rect y=".98" width="40" height="40" rx="20" fill="#949494"/>
    <path d="M11.124 17.84s-.87 0-1.668.772v-3.104H7.5v8.145h1.973v-.637s.467.844 1.642.844c0 0 2.754-.108 2.754-3.05.009.009-.099-2.97-2.745-2.97zm-.43 4.297c-.691 0-1.256-.556-1.256-1.256s.556-1.255 1.255-1.255c.691 0 1.256.565 1.256 1.255a1.26 1.26 0 0 1-1.256 1.256zM14.506 15.32v1.893s.888-.036.888 1.623v4.817h1.883v-5.265s.081-3.068-2.771-3.068zM21.888 17.867s-3.23 0-3.23 3.014c0 0-.098 2.979 3.23 2.979 0 0 3.301-.01 3.301-2.979.01 0 .117-3.014-3.3-3.014zm0 4.27c-.7 0-1.256-.556-1.256-1.256s.565-1.255 1.256-1.255c.69 0 1.256.565 1.256 1.255 0 .691-.556 1.256-1.256 1.256zM30.59 18.056v.556s-.566-.745-1.642-.745c0 0-2.763-.116-2.763 2.996 0 0-.027 2.907 2.69 2.907 0 0 1.113.045 1.723-.745v.458s.135 1.426-1.247 1.426h-.475v1.731h.762s2.862.027 2.862-3.05v-5.525h-1.91v-.01zm-1.167 4.081c-.69 0-1.256-.556-1.256-1.256s.565-1.256 1.256-1.256c.69 0 1.256.566 1.256 1.256a1.26 1.26 0 0 1-1.256 1.256z" fill="#fff"/>
</svg>
