<svg width="170" height="38" viewBox="0 0 170 38" fill="none" xmlns="http://www.w3.org/2000/svg">
    <path fill-rule="evenodd" clip-rule="evenodd" d="M16.713 28.201c4.467 3.07 11.471 4.135 18.002.474-4.025 6.932-12.124 10.738-20.239 8.836C4.436 35.161-1.83 24.965.48 14.741 2.711 4.86 12.14-1.432 21.834.282c0 0 3.803.675 5.757 4.1.736 1.235 1.32 2.67 1.706 4.29l.008.038a15.78 15.78 0 0 1-.054 6.767c-.801 3.553-2.77 6.874-5.329 8.658a7.45 7.45 0 0 0 1.837-3.467c.903-3.996-1.544-7.979-5.466-8.896-3.921-.92-7.832 1.574-8.737 5.567-.26 1.157-.294 2.306-.08 3.382 0 0 .688 4.506 5.239 7.481h-.002zm7.21-4.067-.017.018.013-.016.003-.002zm-8.805 1.385c1.676.957 3.69 1.387 3.69 1.387 4.573 1.071 9.163-.095 12.645-2.756l.022-.02a15.662 15.662 0 0 0 4.033-4.272c.704-1.1 1.259-2.26 1.665-3.449.514 4.74-.467 7.418-.467 7.418-1.287 1.56-2.633 2.515-2.633 2.515-3.47 2.61-7.95 3.637-12.485 2.575 0 0-3.919-.84-6.468-3.396l-.002-.002zm20.1-10.515c-1.66 6.65-8.373 11.93-15.52 11.345v-.001l-.009-.009c.462-.074.94-.193 1.361-.325 5.045-1.585 9.146-5.788 10.416-11.405.837-3.704.301-7.404-1.27-10.548 4.048 3.323 5.537 7.294 5.537 7.294-.015 1.552-.516 3.649-.516 3.649zM68.124 7.8V21.5h-3.08V7.8h3.08zM170 30.773V7.797h-3.081v22.976h3.081zM89.852 7.792v4.386h-4.497v2.679h4.497v6.642h3.079V7.792h-3.079zm-9.707 3.695 5.055 8.742h-3.33l-3.66-6.327-3.657 6.327h-3.33l5.056-8.742h-4.237V8.81h4.636V7.003h3.083V8.81h4.655v2.677h-4.27zm85.495 12.605-7.853-15.539H154.338l-7.855 15.539h3.417l6.164-12.191 6.162 12.19h3.414zm-41.549.78v-2.677l20.435.002.008 8.518h-3.079v-5.843h-17.364zm-72.496-2.208h-3.08v7.538l19.754.001v-2.676H51.595v-4.863zm24.235 4.863h16.976v2.676h-20.06v-7.539h3.084v4.863zm60.799-19.583v2.684h4.826v4.369h-4.826v2.677h4.826v3.25h3.079V7.944h-7.905zm-21.702 10.302-.009-10.295 5.257-.007v2.687h-2.168v10.053a6.598 6.598 0 0 1 1.128 3.704c0 3.613-2.874 6.541-6.423 6.541s-6.421-2.93-6.421-6.541c0-1.946.833-3.694 2.157-4.892l-12.32.006v-2.677h4.378v-3.882h3.082v3.882h4.946v-5.958h-11.86V8.192l14.939-.005v9.755a6.347 6.347 0 0 1 3.314.304zm-68.256-3.862c0-3.613 2.874-6.543 6.422-6.543 3.547 0 6.424 2.932 6.424 6.543s-2.878 6.543-6.424 6.543c-3.546 0-6.422-2.93-6.422-6.543zm2.832.002c0 2.016 1.608 3.652 3.59 3.652 1.981 0 3.59-1.634 3.59-3.652 0-2.018-1.609-3.654-3.59-3.654-1.982 0-3.59 1.638-3.59 3.654zm79.365-6.873c-3.547 0-6.423 2.93-6.423 6.541s2.876 6.543 6.423 6.543c3.548 0 6.423-2.93 6.423-6.543s-2.875-6.541-6.423-6.541zm0 10.197c-1.983 0-3.588-1.638-3.588-3.654s1.607-3.654 3.588-3.654c1.982 0 3.588 1.636 3.588 3.654s-1.608 3.654-3.588 3.654zm-19.744 6.68c0 2.017 1.607 3.654 3.588 3.654 1.983 0 3.591-1.635 3.591-3.654 0-2.02-1.611-3.656-3.591-3.656-1.98 0-3.588 1.638-3.588 3.656z" fill="#ACACAC"/>
</svg>
