<svg width="198" height="50" viewBox="0 0 198 50" fill="none" xmlns="http://www.w3.org/2000/svg">
<path d="M77.3245 11.9165H74.8652V31.2239H77.3245V11.9165Z" fill="white"/>
<path d="M62.1486 38.0583C61.1024 38.0583 59.9883 37.3925 59.9883 35.9251V28.9141H62.4476V35.6941H77.2169V38.0718H62.1486V38.0583Z" fill="white"/>
<path d="M86.1171 38.0853C84.704 38.0853 83.9023 37.3108 83.9023 35.9793V29.0498H86.3616V35.7211H101.009V38.0989H86.1171V38.0853Z" fill="white"/>
<path d="M88.0461 19.8917L82.3123 27.4054L80.3965 25.8972L88.0053 16.2231L96.0082 25.8836L94.106 27.4326L88.0461 19.8917Z" fill="white"/>
<path d="M98.5211 31.2647V20.5172H94.3906V18.153H98.5211V11.9165H100.98V31.2647H98.5211Z" fill="white"/>
<path d="M81.1445 16.2235V13.8593H86.7697V11.6582H89.2289V13.8593H94.854V16.2235H81.1445Z" fill="white"/>
<path d="M108.642 22.4331C107.569 22.4331 106.428 21.7945 106.428 20.3814V12.6367H123.249V22.4331H108.656H108.642ZM120.776 20.0825V15.0009H108.887V20.0825H120.776Z" fill="white"/>
<path d="M113.604 32.4738V27.5553H103.902V25.2183H125.764V27.5553H116.063V32.4738H113.604Z" fill="white"/>
<path d="M108.67 38.0584C107.284 38.0584 106.455 37.2568 106.455 35.9252V29.3354H108.914V35.6943H123.847V38.072H108.67V38.0584Z" fill="white"/>
<path d="M144.773 38.0855V33.6153H127.395V31.2511H134.487V28.2891C131.226 27.7999 128.862 25.4765 128.862 22.7183C128.862 19.5933 131.933 17.0525 135.71 17.0525C139.487 17.0525 142.558 19.5933 142.558 22.7183C142.558 25.4629 140.207 27.7864 136.96 28.2891V31.2511H144.773V11.9165H147.232V20.4085H150.384V22.7727H147.232V38.0855H144.773ZM135.71 19.24C133.319 19.24 131.376 20.8025 131.376 22.7319C131.376 24.6613 133.319 26.2238 135.71 26.2238C138.101 26.2238 140.044 24.6613 140.044 22.7319C140.044 20.8025 138.101 19.24 135.71 19.24Z" fill="white"/>
<path d="M128.184 16.1829V13.8459H134.502V11.7671H136.988V13.8459H143.388V16.1829H128.184Z" fill="white"/>
<path d="M169.745 38.0855V22.1205H167.367V38.0855H164.908V11.9165H167.367V19.8107H169.745V11.9165H172.205V38.0855H169.745Z" fill="white"/>
<path d="M163.073 13.8325H152.285V16.1695H163.073V13.8325Z" fill="white"/>
<path d="M151.498 29.4029L157.612 16.1689L163.631 29.4301L161.512 30.3676L157.653 21.7261L153.699 30.4219L151.498 29.4029Z" fill="white"/>
<path d="M180.236 38.0852C178.524 38.0852 177.654 37.3107 177.654 35.7753V29.1855H180.114V35.7074H194.937V38.0852H180.236Z" fill="white"/>
<path d="M192.082 31.3734V25.7619H177.68C176.552 25.7619 175.221 25.164 175.221 23.4792V13.8459H188.455V16.1965H177.68V23.4249H192.069V11.9165H194.528V17.8269H197.68V20.1775H194.528V31.3734H192.069H192.082Z" fill="white"/>
<path d="M64.2406 26.6175C60.3003 26.6175 57.0938 23.4109 57.0938 19.4706C57.0938 15.5303 60.3003 12.3237 64.2406 12.3237C68.1809 12.3237 71.3875 15.5303 71.3875 19.4706C71.3875 23.4109 68.1809 26.6175 64.2406 26.6175ZM64.2406 14.9325C61.727 14.9325 59.6889 16.9706 59.6889 19.4842C59.6889 21.9978 61.727 24.0359 64.2406 24.0359C66.7542 24.0359 68.7923 21.9978 68.7923 19.4842C68.7923 16.9706 66.7542 14.9325 64.2406 14.9325Z" fill="white"/>
<path d="M60.3009 43.8188H59.6895V48.6967H60.3009V43.8188Z" fill="white"/>
<path d="M64.1059 47.6097L61.6331 43.8188H61.0488V48.7102H61.6331V44.9194L64.1059 48.7102H64.7037V43.8188H64.1059V47.6097Z" fill="white"/>
<path d="M69.3234 46.7541C69.2147 47.678 68.6712 48.2215 67.8695 48.2215C67.2581 48.2215 66.3478 47.7052 66.3478 46.2921C66.3478 45.5584 66.6874 44.2948 67.9374 44.2948C68.6983 44.2948 69.1875 44.8519 69.2419 45.3953V45.5176H69.8533V45.3818C69.7989 44.5665 69.0652 43.7241 67.9374 43.7241C66.4157 43.7241 65.7363 45.0693 65.7363 46.3057C65.7363 47.7867 66.6195 48.8193 67.8831 48.8193C68.9973 48.8193 69.7853 48.0449 69.9348 46.7948V46.6454H69.3369V46.7677L69.3234 46.7541Z" fill="white"/>
<path d="M73.5357 45.8705H71.1036V43.8188H70.4922V48.7102H71.1036V46.4684H73.5357V48.7102H74.1471V43.8188H73.5357V45.8705Z" fill="white"/>
<path d="M75.506 46.4688H77.9653V45.9118H75.506V44.4172H78.1419V43.8193H74.8945V48.7107H78.1691V48.1265H75.506V46.4688Z" fill="white"/>
<path d="M80.6681 43.7104C79.3637 43.7104 78.4941 44.7431 78.4941 46.2648C78.4941 47.7866 79.3637 48.8057 80.6681 48.8057C81.9724 48.8057 82.842 47.7866 82.842 46.2648C82.842 44.7431 81.9724 43.7104 80.6681 43.7104ZM80.6681 48.2214C79.717 48.2214 79.1055 47.4605 79.1055 46.2648C79.1055 45.0692 79.717 44.2947 80.6681 44.2947C81.6192 44.2947 82.2306 45.0692 82.2306 46.2648C82.2306 47.4605 81.6192 48.2214 80.6681 48.2214Z" fill="white"/>
<path d="M86.4829 47.6102L84.0236 43.8193H83.4258V48.7107H84.0236V44.9199L86.4829 48.7107H87.0943V43.8193H86.4829V47.6102Z" fill="white"/>
<path d="M89.7715 48.7107H90.3965V46.4824H92.5704V45.9118H90.3965V44.4172H92.8286V43.8193H89.7715V48.7107Z" fill="white"/>
<path d="M95.2189 43.7104C93.9145 43.7104 93.0449 44.7431 93.0449 46.2648C93.0449 47.7866 93.9145 48.8057 95.2189 48.8057C96.5233 48.8057 97.3928 47.7866 97.3928 46.2648C97.3928 44.7431 96.5233 43.7104 95.2189 43.7104ZM95.2189 44.2947C96.17 44.2947 96.7814 45.0692 96.7814 46.2648C96.7814 47.4605 96.17 48.2214 95.2189 48.2214C94.2678 48.2214 93.6564 47.4605 93.6564 46.2648C93.6564 45.0692 94.2678 44.2947 95.2189 44.2947Z" fill="white"/>
<path d="M100.954 46.7266C100.954 47.7864 100.601 48.2348 99.7584 48.2348C98.916 48.2348 98.5763 47.7728 98.5763 46.7538V43.8325H97.9648V46.8625C97.9648 48.1533 98.5899 48.8326 99.7584 48.8326C100.927 48.8326 101.565 48.1533 101.565 46.8625V43.8325H100.954V46.7402V46.7266Z" fill="white"/>
<path d="M105.37 47.6097L102.91 43.8188H102.312V48.7102H102.91V44.9194L105.37 48.7102H105.981V43.8188H105.37V47.6097Z" fill="white"/>
<path d="M108.454 43.8193H106.715V48.6971H108.291C109.623 48.6971 110.492 47.7325 110.492 46.2514C110.492 43.996 108.93 43.8193 108.454 43.8193ZM107.326 44.4036H108.4C109.378 44.4036 109.881 45.0286 109.881 46.265C109.881 47.6238 109.065 48.0993 108.291 48.0993H107.34V44.39L107.326 44.4036Z" fill="white"/>
<path d="M112.477 43.8188L110.643 48.6967H111.281L111.797 47.3108H113.672L114.175 48.6967H114.827L113.034 43.8188H112.463H112.477ZM112.001 46.7537L112.762 44.7156L113.496 46.7537H112.001Z" fill="white"/>
<path d="M114.338 44.4172H115.832V48.7107H116.457V44.4172H117.938V43.8193H114.338V44.4172Z" fill="white"/>
<path d="M118.889 43.8193H118.277V48.6971H118.889V43.8193Z" fill="white"/>
<path d="M121.66 43.7104C120.356 43.7104 119.486 44.7431 119.486 46.2648C119.486 47.7866 120.356 48.8057 121.66 48.8057C122.965 48.8057 123.834 47.7866 123.834 46.2648C123.834 44.7431 122.965 43.7104 121.66 43.7104ZM121.66 44.2947C122.611 44.2947 123.223 45.0692 123.223 46.2648C123.223 47.4605 122.611 48.2214 121.66 48.2214C120.709 48.2214 120.098 47.4605 120.098 46.2648C120.098 45.0692 120.709 44.2947 121.66 44.2947Z" fill="white"/>
<path d="M127.475 47.6102L125.016 43.8193H124.418V48.7107H125.016V44.9199L127.475 48.7107H128.087V43.8193H127.475V47.6102Z" fill="white"/>
<path d="M130.424 48.7107H131.035V46.4824H133.223V45.9118H131.035V44.4172H133.467V43.8193H130.424V48.7107Z" fill="white"/>
<path d="M135.86 43.7104C134.555 43.7104 133.686 44.7431 133.686 46.2648C133.686 47.7866 134.555 48.8057 135.86 48.8057C137.164 48.8057 138.033 47.7866 138.033 46.2648C138.033 44.7431 137.164 43.7104 135.86 43.7104ZM135.86 48.2214C134.908 48.2214 134.297 47.4605 134.297 46.2648C134.297 45.0692 134.908 44.2947 135.86 44.2947C136.811 44.2947 137.422 45.0692 137.422 46.2648C137.422 47.4605 136.811 48.2214 135.86 48.2214Z" fill="white"/>
<path d="M142.068 47.583C142.068 47.0667 141.987 46.564 141.511 46.333C141.933 46.102 142.15 45.6944 142.136 45.1645C142.136 44.2813 141.62 43.8193 140.655 43.8193H138.631V48.6971H139.242V46.6319H140.56C141.308 46.6319 141.443 46.9172 141.457 47.5694V47.746C141.484 48.0585 141.498 48.4118 141.579 48.6156L141.606 48.6971H142.313L142.164 48.4933C142.164 48.4933 142.082 48.2895 142.055 47.583H142.068ZM139.242 44.4036H140.615C141.24 44.4036 141.525 44.6617 141.525 45.2052C141.525 46.0205 140.791 46.0884 140.574 46.0884H139.256V44.4036H139.242Z" fill="white"/>
<path d="M145.791 43.8193L143.957 48.6971H144.596L145.112 47.3112H146.987L147.49 48.6971H148.142L146.348 43.8193H145.791ZM145.316 46.7542L146.077 44.7161L146.81 46.7542H145.316Z" fill="white"/>
<path d="M151.865 47.583C151.865 47.0667 151.784 46.564 151.308 46.333C151.729 46.102 151.947 45.6944 151.933 45.1645C151.933 44.2813 151.417 43.8193 150.452 43.8193H148.428V48.6971H149.039V46.6319H150.357C151.104 46.6319 151.24 46.9172 151.254 47.5694V47.746C151.281 48.0585 151.295 48.4254 151.376 48.6156L151.403 48.6971H152.11L151.96 48.4933C151.96 48.4933 151.879 48.3167 151.852 47.583H151.865ZM149.039 44.4036H150.411C151.036 44.4036 151.322 44.6617 151.322 45.2052C151.322 46.0205 150.588 46.0884 150.371 46.0884H149.053V44.4036H149.039Z" fill="white"/>
<path d="M152.219 44.4172H153.713V48.7107H154.338V44.4172H155.833V43.8193H152.219V44.4172Z" fill="white"/>
<path d="M158.197 45.9796L157.858 45.8981C157.124 45.7214 156.743 45.5992 156.743 45.0828C156.743 44.3627 157.559 44.3084 157.803 44.3084C158.551 44.3084 158.904 44.6209 158.931 45.3002V45.4225H159.529V45.2867C159.488 44.2676 158.89 43.7241 157.803 43.7241C156.988 43.7241 156.118 44.091 156.118 45.11C156.118 46.1291 156.893 46.2785 157.586 46.4687L157.885 46.5367C158.578 46.6997 159.012 46.8356 159.012 47.4198C159.012 48.0313 158.428 48.2622 157.885 48.2622C157.029 48.2622 156.608 47.8682 156.608 47.0666V46.9307H155.996V47.0666C155.996 47.6101 156.132 48.0449 156.431 48.3438C156.757 48.6699 157.233 48.8329 157.871 48.8329C158.931 48.8329 159.61 48.2758 159.61 47.3927C159.61 46.36 158.917 46.1834 158.184 45.9932L158.197 45.9796Z" fill="white"/>
<path d="M164.99 46.6726V46.5367H164.433V46.6726C164.433 46.8492 164.419 47.0122 164.378 47.1345L163.617 46.1155C163.943 45.8845 164.283 45.5992 164.419 45.1916C164.46 45.0693 164.473 44.9198 164.46 44.7975C164.433 44.2133 163.984 43.8057 163.359 43.8057C162.884 43.8057 162.34 44.1046 162.286 44.7432C162.272 44.8655 162.286 44.9877 162.327 45.1236C162.408 45.4361 162.598 45.6943 162.775 45.9389L162.802 45.966C162.381 46.2378 161.96 46.5775 161.81 47.0938C161.769 47.2296 161.756 47.3791 161.756 47.5421C161.797 48.371 162.49 48.8058 163.169 48.8058C163.685 48.8058 164.12 48.5748 164.433 48.14L164.854 48.6971H165.587L164.772 47.6237C164.922 47.3112 164.99 47.0258 165.003 46.659L164.99 46.6726ZM163.169 48.2487C162.761 48.2487 162.313 47.9769 162.313 47.4742C162.313 46.9715 162.734 46.6726 163.128 46.4144L164.079 47.6644C163.862 48.0449 163.549 48.2351 163.169 48.2351V48.2487ZM163.386 44.3491C163.644 44.3491 163.903 44.5258 163.903 44.8655C163.903 45.2323 163.563 45.4905 163.291 45.6943C162.992 45.2867 162.843 45.0693 162.843 44.8519C162.843 44.6345 162.965 44.4578 163.183 44.3899C163.251 44.3627 163.318 44.3627 163.373 44.3627V44.2269L163.4 44.3627L163.386 44.3491Z" fill="white"/>
<path d="M170.847 46.7541C170.738 47.678 170.195 48.2215 169.393 48.2215C168.781 48.2215 167.871 47.7052 167.871 46.2921C167.871 45.5584 168.211 44.2948 169.461 44.2948C170.222 44.2948 170.711 44.8519 170.765 45.3953V45.5176H171.377V45.3818C171.322 44.5665 170.589 43.7241 169.461 43.7241C167.939 43.7241 167.26 45.0693 167.26 46.3057C167.26 47.7867 168.143 48.8193 169.406 48.8193C170.521 48.8193 171.309 48.0449 171.458 46.7948V46.6454H170.86V46.7677L170.847 46.7541Z" fill="white"/>
<path d="M174.991 46.7266C174.991 47.7864 174.638 48.2348 173.795 48.2348C172.953 48.2348 172.613 47.7728 172.613 46.7538V43.8325H172.002V46.8625C172.002 48.1533 172.627 48.8326 173.795 48.8326C174.964 48.8326 175.603 48.1533 175.603 46.8625V43.8325H174.991V46.7402V46.7266Z" fill="white"/>
<path d="M176.947 43.8193H176.336V48.7107H179.379V48.1129H176.947V43.8193Z" fill="white"/>
<path d="M178.781 44.4172H180.276V48.7107H180.887V44.4172H182.382V43.8193H178.781V44.4172Z" fill="white"/>
<path d="M185.698 46.7266C185.698 47.7864 185.345 48.2348 184.503 48.2348C183.66 48.2348 183.32 47.7728 183.32 46.7538V43.8325H182.709V46.8625C182.709 48.1533 183.334 48.8326 184.503 48.8326C185.671 48.8326 186.31 48.1533 186.31 46.8625V43.8325H185.698V46.7402V46.7266Z" fill="white"/>
<path d="M190.494 47.583C190.494 47.0667 190.413 46.564 189.937 46.333C190.358 46.102 190.576 45.6944 190.562 45.1645C190.562 44.2813 190.046 43.8193 189.081 43.8193H187.057V48.6971H187.668V46.6319H188.986C189.733 46.6319 189.869 46.9172 189.883 47.5694V47.746C189.91 48.0585 189.924 48.4254 190.005 48.6156L190.032 48.6971H190.739L190.589 48.4933C190.589 48.4933 190.508 48.2895 190.481 47.583H190.494ZM187.668 44.4036H189.04C189.665 44.4036 189.951 44.6617 189.951 45.2052C189.951 46.0205 189.217 46.0884 189 46.0884H187.682V44.4036H187.668Z" fill="white"/>
<path d="M191.879 48.126V46.4684H194.352V45.9113H191.879V44.4167H194.515V43.8188H191.268V48.7102H194.542V48.126H191.879Z" fill="white"/>
<path d="M5.5164 22.9354C5.5164 21.1555 4.06261 19.7017 2.28268 19.7017C1.56256 19.7017 0.910341 19.9326 0.38044 20.3267C0.13587 21.7262 0 23.1664 0 24.6338C0 24.8376 1.32691e-05 25.0414 0.0136005 25.2452C0.59785 25.8295 1.39951 26.1828 2.28268 26.1828C4.06261 26.1828 5.5164 24.7289 5.5164 22.949V22.9354Z" fill="white"/>
<path d="M3.47852 37.2427C3.47852 37.2427 3.47852 37.2557 3.47852 37.2687H3.49155L3.47852 37.2427Z" fill="white"/>
<path d="M2.28224 16.9297C5.58393 16.9297 8.28777 19.6199 8.28777 22.9216C8.28777 25.6934 6.39913 28.0168 3.85832 28.7098H7.73068V26.726H10.6248V28.7098H14.2933C13.7906 27.4462 13.5052 26.0603 13.5052 24.62C13.5052 18.4922 18.4782 13.5193 24.606 13.5193C30.7338 13.5193 35.7067 18.4922 35.7067 24.62C35.7067 28.5739 33.6415 32.0386 30.53 34.0088H39.4025V29.3484H48.0983V31.8484H42.2014V36.2371H46.3183C48.1798 32.7723 49.226 28.8185 49.226 24.62C49.226 11.0192 38.2068 0 24.606 0C13.6547 0 4.37463 7.14687 1.18164 17.0384C1.53491 16.9704 1.9018 16.9297 2.28224 16.9297Z" fill="white"/>
<path d="M39.4162 38.4788V36.4951H35.5031L40.8836 42.0115L39.6608 43.2208L39.0765 43.805L35.4623 40.1093L31.8481 43.8186L30.9378 42.9083H29.1035C30.6389 43.7643 31.6851 45.4083 31.6851 47.2969C31.6851 47.623 31.6579 47.9355 31.59 48.2345C34.7422 47.2969 37.6499 45.7616 40.1363 43.7371C41.9978 42.2289 43.6282 40.449 44.987 38.4653H39.4298L39.4162 38.4788Z" fill="white"/>
<path d="M9.18516 35.2725L5.47584 39.0361L3.49212 37.2426H3.47852C5.53018 40.6938 8.41069 43.5742 11.8211 45.6667V37.8404L9.18516 35.2725Z" fill="white"/>
<path d="M24.1982 42.9082H21.8748V45.6664H11.8203C14.8367 47.5007 18.2742 48.7099 21.9564 49.104C21.739 48.5469 21.6167 47.9355 21.6167 47.2969C21.6167 45.4082 22.6629 43.7642 24.1982 42.9082Z" fill="white"/>
<path d="M19.1182 38.3022H14.5801V42.9219H19.1182V38.3022Z" fill="white"/>
<path d="M29.1582 47.1474C29.0767 45.8294 27.9897 44.7832 26.6581 44.7832C25.3266 44.7832 24.1445 45.9109 24.1445 47.2968C24.1445 48.0713 24.4978 48.7778 25.0685 49.2398C26.2234 49.2126 27.3511 49.1311 28.4517 48.9545C28.4788 48.9545 28.5196 48.9545 28.5468 48.9409C28.9272 48.5061 29.1582 47.9354 29.1582 47.3104C29.1582 47.2561 29.1582 47.2153 29.1582 47.161V47.1474Z" fill="white"/>
<path d="M3.46474 37.2285L9.17134 31.4403H3.73646V28.75C3.2745 28.8723 2.78539 28.9403 2.28266 28.9403C1.58971 28.9403 0.937512 28.818 0.3125 28.6006C0.815227 31.7256 1.90221 34.6469 3.46474 37.2556L3.45114 37.2421L3.46474 37.2285Z" fill="white"/>
<path d="M9.21289 31.4269L13.2347 35.3808H21.8898C18.425 34.4976 15.5989 31.984 14.3081 28.7095V31.4269H9.22649H9.21289Z" fill="white"/>
<path d="M21.9294 35.408L21.875 35.4895V40.2722H25.2039V38.2749H28.098V40.2722H31.7665L35.435 36.5085H30.5572V34.0356C28.8453 35.1226 26.8071 35.7476 24.6196 35.7476C23.6957 35.7476 22.7989 35.6389 21.9294 35.4215V35.408Z" fill="white"/>
<path d="M21.9294 35.4082C21.9294 35.4082 21.9023 35.4082 21.8887 35.4082V35.4897L21.943 35.4082H21.9294Z" fill="white"/>
</svg>
