<svg width="40" height="41" viewBox="0 0 40 41" fill="none" xmlns="http://www.w3.org/2000/svg">
    <rect y=".98" width="40" height="40" rx="20" fill="#949494"/>
    <path d="M29.8 16.98s-.195-1.378-.796-1.984c-.762-.797-1.613-.8-2.004-.848-2.797-.203-6.996-.203-6.996-.203h-.008s-4.2 0-6.996.203c-.39.047-1.242.051-2.004.848-.601.606-.793 1.984-.793 1.984S10 18.602 10 20.22v1.515c0 1.618.2 3.239.2 3.239s.195 1.379.792 1.984c.762.797 1.762.77 2.207.855 1.602.153 6.801.2 6.801.2s4.203-.008 7-.207c.39-.047 1.242-.051 2.004-.848.601-.605.797-1.984.797-1.984S30 23.356 30 21.734V20.22c0-1.617-.2-3.239-.2-3.239zm-11.866 6.594v-5.62l5.402 2.82-5.402 2.8z" fill="#fff"/>
</svg>
